<svg width="30" height="35" viewBox="0 0 30 35" fill="none" xmlns="http://www.w3.org/2000/svg">
<path d="M30 0.321808L27.2669 30.9392L14.9816 34.3451L2.73018 30.944L0 0.321808H30Z" fill="#264DE4"/>
<path d="M24.9271 28.9896L27.2627 2.82559H15V31.7418L24.9271 28.9896Z" fill="#2965F1"/>
<path d="M6.25879 14.183L6.5954 17.9386H14.9999V14.183H6.25879Z" fill="#EBEBEB"/>
<path d="M15 6.5813H14.987H5.58252L5.92393 10.3371H15V6.5813Z" fill="#EBEBEB"/>
<path d="M14.9998 27.8444V23.9369L14.9834 23.9413L10.8006 22.8118L10.5333 19.8165H8.50082H6.76318L7.28936 25.7135L14.9826 27.8492L14.9998 27.8444Z" fill="#EBEBEB"/>
<path d="M19.6118 17.9386L19.1759 22.8094L14.9871 23.94V27.8473L22.6865 25.7134L22.7429 25.0789L23.6255 15.1914L23.7171 14.1829L24.3951 6.5813H14.9871V10.3371H20.2792L19.9375 14.1829H14.9871V17.9386H19.6118Z" fill="white"/>
</svg>
