<svg width="80" height="17" viewBox="0 0 80 17" fill="none" xmlns="http://www.w3.org/2000/svg">
<g clip-path="url(#clip0_1_11)">
<path d="M53.1815 0.00671387H67.1161V2.57868H61.5884V16.1094H58.8244V2.57868H53.1815V0.00671387Z" fill="white"/>
<path d="M30.2644 0.00671387V2.57868H19.0948V6.71618H28.0774V9.28814H19.0948V13.5375H30.2644V16.1094H16.331V2.57868H16.3298V0.00671387H30.2644Z" fill="white"/>
<path d="M37.2223 0.0134277H33.6053L46.5608 16.1162H50.1884L43.7099 8.07033L50.1781 0.0257131L46.5608 0.0313029L41.8989 5.82126L37.2223 0.0134277Z" fill="white"/>
<path d="M40.934 11.5157L39.1226 9.26353L33.5949 16.1284H37.2223L40.934 11.5157Z" fill="white"/>
<path fill-rule="evenodd" clip-rule="evenodd" d="M16.4278 16.1094L3.45484 0H0V16.1027H2.76388V3.44195L12.9557 16.1094H16.4278Z" fill="white"/>
<path d="M67.7375 16.0111C67.535 16.0111 67.3628 15.941 67.2187 15.8007C67.0745 15.6605 67.0032 15.4907 67.0051 15.2896C67.0032 15.094 67.0745 14.926 67.2187 14.7858C67.3628 14.6455 67.535 14.5754 67.7375 14.5754C67.9322 14.5754 68.1025 14.6455 68.2467 14.7858C68.3929 14.926 68.4658 15.094 68.4678 15.2896C68.4658 15.4224 68.4321 15.5442 68.3647 15.6531C68.2954 15.7638 68.2075 15.8506 68.0969 15.9133C67.9882 15.9779 67.8684 16.0111 67.7375 16.0111Z" fill="white"/>
<path d="M72.4548 9.22748H73.6796V13.9461C73.6778 14.3798 73.584 14.7507 73.4006 15.0626C73.2152 15.3744 72.9586 15.6125 72.629 15.7804C72.3013 15.9465 71.9174 16.0314 71.481 16.0314C71.082 16.0314 70.7245 15.9594 70.4061 15.8192C70.0877 15.6789 69.8349 15.4686 69.6495 15.1917C69.4621 14.9149 69.3704 14.5699 69.3704 14.1565H70.5972C70.599 14.3373 70.6402 14.4942 70.7188 14.6252C70.7974 14.7562 70.906 14.8559 71.0447 14.926C71.185 14.9961 71.3462 15.0312 71.5277 15.0312C71.7245 15.0312 71.893 14.9906 72.0296 14.9075C72.1663 14.8263 72.2713 14.7046 72.3444 14.5422C72.4154 14.3816 72.453 14.1823 72.4548 13.9461V9.22748Z" fill="white"/>
<path d="M78.719 11.0729C78.6891 10.7868 78.558 10.5635 78.3295 10.4048C78.0991 10.2443 77.8014 10.1649 77.4361 10.1649C77.1797 10.1649 76.9588 10.2037 76.7752 10.2793C76.5917 10.3569 76.4493 10.4602 76.3519 10.5912C76.2546 10.7222 76.2059 10.8717 76.202 11.0397C76.202 11.1799 76.2357 11.3017 76.3013 11.4032C76.3669 11.5065 76.4548 11.5933 76.5691 11.6634C76.6814 11.7353 76.8069 11.7944 76.9438 11.8424C77.0822 11.8904 77.2209 11.931 77.3594 11.9642L77.998 12.121C78.2546 12.1801 78.5038 12.2595 78.7415 12.3609C78.9793 12.4606 79.1947 12.5879 79.3838 12.7411C79.573 12.8943 79.7228 13.0788 79.8333 13.2947C79.9438 13.5106 80 13.7634 80 14.055C80 14.448 79.8989 14.7931 79.6946 15.0921C79.4906 15.3892 79.1966 15.6217 78.8108 15.7896C78.4268 15.9557 77.9624 16.0406 77.4156 16.0406C76.8875 16.0406 76.4268 15.9594 76.0392 15.797C75.6498 15.6365 75.3462 15.4003 75.1271 15.0902C74.908 14.7802 74.7901 14.4019 74.7732 13.9572H75.9868C76.0037 14.1897 76.0786 14.3835 76.2059 14.5403C76.335 14.6953 76.5036 14.8097 76.7097 14.8872C76.9176 14.9629 77.1497 15.0017 77.4063 15.0017C77.6741 15.0017 77.9101 14.9611 78.1141 14.8817C78.3164 14.8024 78.4755 14.6917 78.5899 14.5477C78.706 14.4056 78.7641 14.2377 78.7659 14.0458C78.7641 13.8705 78.7115 13.7246 78.6104 13.6102C78.5074 13.4958 78.3651 13.3999 78.1834 13.3224C78 13.2449 77.7864 13.1747 77.5429 13.1138L76.7677 12.9182C76.2077 12.7761 75.7639 12.5602 75.4398 12.2705C75.1141 11.9808 74.9529 11.597 74.9529 11.1153C74.9529 10.7204 75.0615 10.3735 75.2808 10.0764C75.4979 9.77927 75.7957 9.54859 76.1722 9.38434C76.5505 9.21827 76.9775 9.13705 77.453 9.13705C77.9362 9.13705 78.3594 9.21827 78.7247 9.38434C79.0897 9.54859 79.3764 9.77742 79.5842 10.069C79.7921 10.3605 79.9007 10.6946 79.9064 11.0729H78.719Z" fill="white"/>
</g>
<defs>
<clipPath id="clip0_1_11">
<rect width="80" height="16.2437" fill="white"/>
</clipPath>
</defs>
</svg>
