<svg width="30" height="27" viewBox="0 0 30 27" fill="none" xmlns="http://www.w3.org/2000/svg">
<g clip-path="url(#clip0_3_20)">
<path d="M15 16.0197C16.4768 16.0197 17.6739 14.8225 17.6739 13.3458C17.6739 11.869 16.4768 10.6718 15 10.6718C13.5233 10.6718 12.3261 11.869 12.3261 13.3458C12.3261 14.8225 13.5233 16.0197 15 16.0197Z" fill="#07B6D5"/>
<path d="M15 18.824C22.9241 18.824 29.3478 16.3713 29.3478 13.3458C29.3478 10.3202 22.9241 7.86749 15 7.86749C7.0759 7.86749 0.652161 10.3202 0.652161 13.3458C0.652161 16.3713 7.0759 18.824 15 18.824Z" stroke="#07B6D5"/>
<path d="M10.2557 16.0849C14.2177 22.9473 19.5537 27.2841 22.1739 25.7713C24.7941 24.2585 23.7063 17.4691 19.7443 10.6066C15.7822 3.74415 10.4463 -0.59262 7.82606 0.920161C5.20585 2.43294 6.29362 9.22241 10.2557 16.0849Z" stroke="#07B6D5"/>
<path d="M10.2557 10.6066C6.29363 17.4691 5.20586 24.2586 7.82607 25.7713C10.4463 27.2841 15.7823 22.9473 19.7443 16.0849C23.7063 9.22242 24.7941 2.43295 22.1739 0.920171C19.5537 -0.592608 14.2177 3.74416 10.2557 10.6066Z" stroke="#07B6D5"/>
</g>
<defs>
<clipPath id="clip0_3_20">
<rect width="30" height="26.6915" fill="white"/>
</clipPath>
</defs>
</svg>
