<svg width="66" height="32" viewBox="0 0 66 32" fill="none" xmlns="http://www.w3.org/2000/svg">
<path d="M20.491 31.3532C20.505 30.3268 20.491 29.2864 20.5472 28.26C20.5613 27.9929 20.6878 27.6414 20.8846 27.4867C24.8635 24.3233 28.8706 21.188 32.8635 18.0527C32.9338 17.9964 33.0182 17.9542 33.1869 17.8558C33.1166 18.137 33.0744 18.3339 33.0322 18.5307C32.8073 19.6133 33.2713 20.246 34.382 20.2319C36.5894 20.1897 38.4734 19.3462 40.034 17.7855C40.1605 17.659 40.273 17.4903 40.4277 17.3919C40.7089 17.2091 41.0182 17.0685 41.2994 16.9138C41.3556 17.2513 41.5524 17.6168 41.4681 17.898C41.2994 18.4323 41.0885 19.0509 40.6948 19.4164C38.9936 21.0193 37.2642 22.608 35.4646 24.0843C32.5402 26.4604 29.5454 28.7521 26.5788 31.086C26.4664 31.1704 26.382 31.2829 26.2836 31.3813C24.3293 31.3532 22.4171 31.3532 20.491 31.3532Z" fill="#FFCF48"/>
<path d="M51.7033 0C51.7033 1.884 51.7033 3.78207 51.7033 5.73637C51.2394 5.73637 50.7754 5.77855 50.3255 5.72231C49.6225 5.65201 49.2851 6.01757 49.1164 6.63619C48.6243 8.43584 48.1603 10.2636 47.626 12.0492C47.0636 13.9051 46.4872 15.761 45.7561 17.5606C45.3905 18.4464 44.6875 19.1915 44.097 20.0492C44.1814 20.0914 44.322 20.1476 44.5751 20.2601C44.2798 20.6678 44.0408 21.0755 43.7315 21.413C42.5926 22.6221 41.4538 23.8312 40.2587 24.9982C39.9775 25.2653 39.5136 25.3919 39.1199 25.4622C38.4169 25.5746 37.6858 25.659 36.9688 25.6168C36.322 25.5747 36.0549 25.1247 36.2798 24.5202C36.4767 24.014 36.7438 23.4516 37.1515 23.1283C39.0636 21.5817 41.018 20.0914 42.9723 18.601C43.5768 18.137 44.0127 17.5887 44.2939 16.8436C44.8703 15.311 45.6717 13.8629 46.1498 12.3163C46.7684 10.2636 47.1761 8.14058 47.6541 6.03162C47.6963 5.84885 47.626 5.51142 47.4995 5.44112C45.728 4.37258 45.7842 2.75571 46.1357 1.04042C46.206 0.702986 46.2903 0.351494 46.3747 0.0140606C48.1462 8.57748e-07 49.9178 0 51.7033 0Z" fill="#DB7FB7"/>
<path d="M26.8179 31.3533C26.9163 31.2408 27.0147 31.1002 27.1272 31.0018C29.9954 28.7382 32.8636 26.4745 35.7317 24.2109C35.8302 24.1266 35.9567 24.0563 36.0973 23.9719C35.9426 25.7012 36.3082 26.0387 38.0657 25.87C40.0481 25.6731 41.7493 24.8577 43.1834 23.4939C43.3802 23.297 43.5911 23.1002 43.788 22.9174C43.8161 22.8893 43.8723 22.9034 43.9707 22.8752C44.1254 23.9438 44.1113 25.0123 43.5349 25.9121C42.6351 27.3322 41.6228 28.6678 40.6245 30.0316C40.2871 30.4956 39.8512 30.9174 39.4716 31.3533C35.2537 31.3533 31.0358 31.3533 26.8179 31.3533Z" fill="#FFCF48"/>
<path d="M0.914081 16.8717C3.02304 15.6064 5.132 14.341 7.2269 13.0756C8.85783 12.1055 10.4747 11.1213 12.1197 10.1652C12.907 9.70127 13.1039 9.75751 13.5538 10.4324C14.0178 11.1213 13.4413 11.3744 13.0336 11.6275C10.7418 13.0897 8.43603 14.5097 6.13024 15.9578C5.23041 16.5202 4.34465 17.0686 3.44483 17.631C3.248 17.7575 3.07928 17.8981 2.76997 18.123C3.23394 18.5027 3.58543 18.8682 4.00722 19.1353C6.39738 20.696 8.81565 22.2285 11.2058 23.7751C11.8947 24.225 12.5555 24.7171 13.2023 25.2091C13.596 25.5044 13.6803 25.87 13.3429 26.2917C13.0336 26.6995 12.7524 26.7557 12.2884 26.4745C8.73129 24.2671 5.14606 22.0738 1.57489 19.8946C1.36399 19.768 1.12498 19.6556 0.900024 19.5431C0.914084 18.6573 0.914081 17.7575 0.914081 16.8717Z" fill="#4A4A4A"/>
<path d="M65.9001 19.2618C65.647 19.3884 65.3939 19.4868 65.1549 19.6274C61.879 21.666 58.6031 23.7188 55.3271 25.7715C55.0741 25.9261 54.7929 26.0527 54.5257 26.1933C54.0336 26.4604 53.7524 26.1933 53.4853 25.7996C53.2041 25.3919 53.3447 25.0685 53.6821 24.8295C54.7788 24.0702 55.8895 23.3251 57.0143 22.608C59.1654 21.2302 61.3306 19.8804 63.4818 18.5026C63.6927 18.362 63.9036 18.2073 64.1848 18.0105C63.8895 17.7715 63.6505 17.5465 63.3834 17.3778C60.5573 15.536 57.7173 13.7082 54.9053 11.8664C54.4414 11.5571 53.9915 11.2056 53.5697 10.8541C53.2322 10.5729 53.176 10.2495 53.4853 9.88398C53.7665 9.53249 54.0477 9.39189 54.4976 9.67309C57.5345 11.529 60.5855 13.3708 63.6224 15.2126C64.3816 15.6766 65.1408 16.1406 65.9001 16.5905C65.9001 17.4762 65.9001 18.3761 65.9001 19.2618Z" fill="#4A4A4A"/>
<path d="M20.519 27.2618C20.519 26.0526 20.6455 25.0263 20.4909 24.028C20.1956 22.0456 20.8986 20.6818 22.5717 19.5992C23.8652 18.7697 24.9759 17.659 26.171 16.6889C26.3538 16.5483 26.5366 16.4077 26.7334 16.2671C27.0005 17.6168 27.3802 17.8558 28.7439 17.8418C30.6561 17.8136 32.3011 17.2372 33.6648 15.8593C34.0304 15.4938 34.4944 15.2126 34.9865 14.8189C35.1692 15.5219 35.0005 15.9156 34.5506 16.2671C31.3591 18.7556 28.1815 21.2723 25.0041 23.7749C23.7387 24.7732 22.4592 25.7714 21.1939 26.7697C21.0252 26.8822 20.8564 27.0087 20.519 27.2618Z" fill="#FFCF48"/>
<path d="M34.6349 19.9929C33.3695 20.021 33.0039 19.5008 33.2992 18.362C33.5804 17.2794 34.4661 16.7592 35.2675 16.1687C36.4064 15.311 37.5733 14.4956 38.7403 13.6941C39.6401 13.0755 40.5681 12.4709 41.5101 11.9086C41.9037 11.6695 42.4099 11.5008 42.8036 11.9367C43.1972 12.3725 43.0145 12.8646 42.7192 13.2302C41.721 14.4815 40.6805 15.7187 39.6261 16.9279C39.1621 17.4622 38.5575 17.8558 38.1498 18.4182C37.2359 19.6555 35.9424 19.8945 34.6349 19.9929Z" fill="#DB7FB7"/>
<path d="M28.5611 17.6168C27.9987 17.5746 27.3097 17.673 27.0989 16.956C26.888 16.2671 27.2394 15.7609 27.8018 15.3391C29.7561 13.8488 31.6823 12.3303 33.6366 10.8541C34.1006 10.5026 34.6208 10.1933 35.1691 10.0105C35.4785 9.89801 36.0127 9.96831 36.2377 10.1792C36.4064 10.3339 36.3502 10.8962 36.2236 11.1774C35.9987 11.6555 35.6753 12.1194 35.3097 12.485C33.8756 13.9191 32.4134 15.3251 30.9512 16.7451C30.2764 17.4059 29.4749 17.673 28.5611 17.6168Z" fill="#DB7FB7"/>
</svg>
