<svg width="30" height="30" viewBox="0 0 30 30" fill="none" xmlns="http://www.w3.org/2000/svg">
<path d="M14.6849 6.79498C9.83995 6.94897 8.39995 10.41 8.06995 12.285C8.49994 11.59 9.85495 10.065 11.8499 10.065C14.1749 10.065 15.9449 12.66 17.0249 13.47C18.3371 14.4541 20.9736 15.7535 24.4349 14.7C27.1949 13.86 28.475 10.93 28.7549 9.53998C27.4199 11.355 25.3949 12.4451 22.8899 11.16C21.1649 10.275 19.8749 6.63001 14.6849 6.79498Z" fill="#07B6D5"/>
<path d="M7.82997 15.03C2.98497 15.184 1.54497 18.645 1.21497 20.52C1.64496 19.825 2.99997 18.3 4.99497 18.3C7.31997 18.3 9.08997 20.895 10.17 21.705C11.4821 22.6891 14.1187 23.9884 17.58 22.935C20.34 22.095 21.62 19.165 21.9 17.775C20.565 19.59 18.54 20.6801 16.035 19.395C14.31 18.51 13.02 14.865 7.82997 15.03Z" fill="#07B6D5"/>
</svg>
